<?xml version="1.0" standalone="no"?>
<!DOCTYPE svg PUBLIC "-//W3C//DTD SVG 20010904//EN"
 "http://www.w3.org/TR/2001/REC-SVG-20010904/DTD/svg10.dtd">
<svg version="1.0" xmlns="http://www.w3.org/2000/svg"
 width="350.000000pt" height="350.000000pt" viewBox="0 0 350.000000 350.000000"
 preserveAspectRatio="xMidYMid meet">
<metadata>
Created by potrace 1.11, written by Peter Selinger 2001-2013
</metadata>
<g transform="translate(0.000000,350.000000) scale(0.100000,-0.100000)"
fill="#000000" stroke="none">
<path d="M1762 3048 c-9 -9 -12 -247 -12 -1010 l0 -998 -40 21 c-177 93 -491
-7 -616 -195 -89 -135 -85 -298 9 -371 181 -138 570 -12 678 219 l29 62 0 783
c0 699 2 782 16 788 22 8 125 -22 197 -58 43 -22 90 -60 153 -123 76 -77 99
-107 138 -186 109 -222 100 -384 -44 -719 -33 -78 -60 -146 -60 -152 0 -6 10
-9 22 -7 17 2 37 31 85 123 189 362 202 653 41 921 -43 72 -125 176 -238 304
-170 191 -233 299 -274 469 -33 137 -50 163 -84 129z"/>
</g>
</svg>
