<?xml version="1.0" standalone="no"?>
<!DOCTYPE svg PUBLIC "-//W3C//DTD SVG 20010904//EN"
 "http://www.w3.org/TR/2001/REC-SVG-20010904/DTD/svg10.dtd">
<svg version="1.0" xmlns="http://www.w3.org/2000/svg"
 width="260.000000pt" height="260.000000pt" viewBox="0 0 260.000000 260.000000"
 preserveAspectRatio="xMidYMid meet">
<metadata>
Created by potrace 1.11, written by Peter Selinger 2001-2013
</metadata>
<g transform="translate(0.000000,260.000000) scale(0.100000,-0.100000)"
fill="#000000" stroke="none">
<path d="M1548 2332 l-738 -266 0 -728 c0 -400 -3 -728 -6 -728 -3 0 -31 7
-62 16 -161 47 -365 -53 -416 -203 -20 -60 -20 -146 0 -207 23 -68 99 -147
176 -182 55 -25 75 -29 153 -29 76 0 99 4 146 26 73 35 134 90 167 153 l27 51
5 729 5 728 545 199 c299 109 546 199 547 199 2 0 3 -225 3 -500 0 -275 -2
-500 -4 -500 -2 0 -33 7 -67 16 -209 54 -429 -101 -429 -301 0 -34 7 -83 16
-109 23 -68 99 -147 176 -182 55 -25 75 -29 153 -29 78 0 98 4 153 29 78 36
153 115 176 184 14 42 16 149 14 973 l-3 926 -737 -265z"/>
</g>
</svg>
